<svg width="48" height="49" viewBox="0 0 48 49" fill="none" xmlns="http://www.w3.org/2000/svg">
<path d="M34 42.5006C30.6926 42.4976 27.4366 41.6802 24.52 40.1206L23.62 39.6206C17.4015 36.2772 12.3034 31.179 8.96 24.9606L8.46 24.0606C6.85964 21.1274 6.01426 17.8419 6 14.5005V13.1605C5.99916 12.0945 6.42392 11.0721 7.18 10.3205L10.56 6.94053C10.8883 6.60973 11.3516 6.4503 11.8139 6.50906C12.2762 6.56782 12.685 6.83814 12.92 7.24054L17.42 14.9605C17.8751 15.7463 17.7437 16.7401 17.1 17.3805L13.32 21.1606C13.0061 21.471 12.9329 21.9506 13.14 22.3406L13.84 23.6606C16.3541 28.3174 20.1786 32.135 24.84 34.6406L26.16 35.3606C26.55 35.5676 27.0296 35.4944 27.34 35.1806L31.12 31.4006C31.7604 30.757 32.7542 30.6256 33.54 31.0806L41.26 35.5806C41.6624 35.8156 41.9328 36.2244 41.9914 36.6866C42.0502 37.149 41.8908 37.6124 41.56 37.9406L38.18 41.3206C37.4284 42.0766 36.406 42.5014 35.34 42.5006H34Z" fill="black"/>
</svg>
