<svg width="48" height="49" viewBox="0 0 48 49" fill="none" xmlns="http://www.w3.org/2000/svg">
<path d="M24.0003 4.49902C16.0124 4.49902 9.51379 10.9976 9.51379 18.9854C9.51379 28.8986 22.4777 43.4516 23.0297 44.0662C23.5481 44.6436 24.4533 44.6426 24.9709 44.0662C25.5227 43.4516 38.4867 28.8986 38.4867 18.9854C38.4865 10.9976 31.9881 4.49902 24.0003 4.49902ZM24.0003 26.274C19.9814 26.274 16.7118 23.0044 16.7118 18.9854C16.7118 14.9665 19.9814 11.697 24.0003 11.697C28.0191 11.697 31.2887 14.9666 31.2887 18.9855C31.2887 23.0044 28.0191 26.274 24.0003 26.274Z" fill="black"/>
</svg>
