<svg width="48" height="49" viewBox="0 0 48 49" fill="none" xmlns="http://www.w3.org/2000/svg">
<path fill-rule="evenodd" clip-rule="evenodd" d="M36 4.5H12C7.58172 4.5 4 8.08172 4 12.5V43.5C4 44.0522 4.44772 44.5 5 44.5C5.26424 44.4984 5.51666 44.3902 5.7 44.2L11.7 38.2C12.8487 37.0816 14.3971 36.4694 16 36.5H36C40.4182 36.5 44 32.9182 44 28.5V12.5C44 8.08172 40.4182 4.5 36 4.5ZM28 25.5C28 26.0522 27.5522 26.5 27 26.5H13C12.4477 26.5 12 26.0522 12 25.5V23.5C12 22.9478 12.4477 22.5 13 22.5H27C27.5522 22.5 28 22.9478 28 23.5V25.5ZM35 18.5C35.5522 18.5 36 18.0523 36 17.5V15.5C36 14.9477 35.5522 14.5 35 14.5H13C12.4477 14.5 12 14.9477 12 15.5V17.5C12 18.0523 12.4477 18.5 13 18.5H35Z" fill="black"/>
</svg>
