<svg width="25" height="25" viewBox="0 0 25 25" fill="none" xmlns="http://www.w3.org/2000/svg">
<path fill-rule="evenodd" clip-rule="evenodd" d="M12.3334 3.5C7.36482 3.5 3.33337 7.53145 3.33337 12.5C3.33337 17.4686 7.36482 21.5 12.3334 21.5C17.2922 21.5 21.3334 17.4686 21.3334 12.5C21.3334 7.53145 17.2922 3.5 12.3334 3.5ZM18.2781 7.64859C19.3518 8.95662 19.9961 10.6258 20.0156 12.4317C19.7618 12.3829 17.2238 11.8655 14.6664 12.1876C14.6078 12.0607 14.559 11.9241 14.5004 11.7874C14.3442 11.4165 14.1686 11.0358 13.9928 10.6746C16.8236 9.5228 18.1121 7.86334 18.2781 7.64859ZM12.3334 4.82755C14.2857 4.82755 16.072 5.55966 17.4289 6.76031C17.2922 6.95553 16.1306 8.50759 13.3974 9.53253C12.1382 7.21909 10.7423 5.32538 10.5276 5.03254C11.1034 4.89588 11.7087 4.82755 12.3334 4.82755ZM9.06333 5.54989C9.26831 5.82321 10.6349 7.72668 11.9137 9.99131C8.32144 10.948 5.14899 10.9284 4.80734 10.9284C5.30517 8.54664 6.9158 6.56507 9.06333 5.54989ZM4.6414 12.5098C4.6414 12.4317 4.6414 12.3536 4.6414 12.2755C4.97328 12.2852 8.70213 12.3341 12.5384 11.1822C12.7629 11.6117 12.9679 12.051 13.1631 12.4902C13.0655 12.5195 12.9581 12.5488 12.8605 12.5781C8.89736 13.8568 6.7889 17.3514 6.6132 17.6442C5.39302 16.2874 4.6414 14.4816 4.6414 12.5098ZM12.3334 20.192C10.5568 20.192 8.91689 19.5868 7.61862 18.5716C7.75528 18.2885 9.31708 15.282 13.6512 13.769C13.6707 13.7592 13.6805 13.7592 13.7 13.7495C14.7835 16.551 15.2228 18.9034 15.3399 19.577C14.4126 19.9772 13.3974 20.192 12.3334 20.192ZM16.6186 18.8742C16.5406 18.4056 16.1306 16.1605 15.1251 13.398C17.5362 13.0173 19.6447 13.6421 19.9083 13.73C19.5764 15.8677 18.3464 17.7126 16.6186 18.8742Z" fill="black"/>
</svg>
