<svg width="54" height="54" viewBox="0 0 54 54" fill="none" xmlns="http://www.w3.org/2000/svg">
<path fill-rule="evenodd" clip-rule="evenodd" d="M0.333008 27C0.333008 12.2724 12.2721 0.333374 26.9997 0.333374C34.0721 0.333374 40.8549 3.14289 45.8559 8.14383C50.8568 13.1448 53.6663 19.9276 53.6663 27C53.6663 41.7276 41.7273 53.6667 26.9997 53.6667C12.2721 53.6667 0.333008 41.7276 0.333008 27ZM22.1198 38.4134L37.6664 28.7067C38.2482 28.3341 38.6001 27.6909 38.6001 27C38.6001 26.3092 38.2482 25.6659 37.6664 25.2934L22.0664 15.5867C21.452 15.1993 20.6758 15.1755 20.0388 15.5244C19.4018 15.8734 19.004 16.5403 18.9998 17.2667V36.7334C18.9912 37.4774 19.3963 38.1647 20.0514 38.5174C20.7065 38.8702 21.5033 38.8301 22.1198 38.4134Z" fill="white"/>
</svg>
